PathFileType	4	(X/Y/Z)	C:/Users/opensim2020/Desktop/walking_exp_matlab/subject01_walking10_straight_04.trc																																																																																																																															
DataRate	CameraRate	NumFrames	NumMarkers	Units	OrigDataRate	OrigDataStartFrame	OrigNumFrames																																																																																																																											
100	100	8	43	mm	100	3890	274																																																																																																																											
Frame#	Time	LFHD			RFHD			LBHD			RBHD			C7			T10			CLAV			STRN			RBAK			LSHO			LUPA			LELB			LFRM			LWRA			LWRB			LFIN			RSHO			RUPA			RELB			RFRM			RWRA			RWRB			RFIN			LASI			RASI			LPSI			RPSI			LTHI			LKNE			LTIB			LANK			LHEE			LTOE			RTHI			RKNE			RTIB			RANK			RHEE			RTOE			*39			*40			*41			*42		
		X1	Y1	Z1	X2	Y2	Z2	X3	Y3	Z3	X4	Y4	Z4	X5	Y5	Z5	X6	Y6	Z6	X7	Y7	Z7	X8	Y8	Z8	X9	Y9	Z9	X10	Y10	Z10	X11	Y11	Z11	X12	Y12	Z12	X13	Y13	Z13	X14	Y14	Z14	X15	Y15	Z15	X16	Y16	Z16	X17	Y17	Z17	X18	Y18	Z18	X19	Y19	Z19	X20	Y20	Z20	X21	Y21	Z21	X22	Y22	Z22	X23	Y23	Z23	X24	Y24	Z24	X25	Y25	Z25	X26	Y26	Z26	X27	Y27	Z27	X28	Y28	Z28	X29	Y29	Z29	X30	Y30	Z30	X31	Y31	Z31	X32	Y32	Z32	X33	Y33	Z33	X34	Y34	Z34	X35	Y35	Z35	X36	Y36	Z36	X37	Y37	Z37	X38	Y38	Z38	X39	Y39	Z39	X40	Y40	Z40	X41	Y41	Z41	X42	Y42	Z42	X43	Y43	Z43
																																																																																																																																		
69	0.68	-579.21039	1678.19324	1067.07324	-535.0249	1677.66553	1172.93506	-691.54443	1641.651	1106.7655	-648.73334	1641.3374	1220.16125	-732.34241	1439.77344	1131.40979	-764.19135	1145.98926	1132.57556	-588.47632	1373.16101	1124.14331	-544.7063	1219.33801	1113.59705	-781.15594	1241.6886	1205.99841	-654.14777	1408.97131	966.69824	-680.1897	1225.35059	879.99176	-687.71478	1073.05005	878.00317	-637.87549	970.1344	851.04614	-545.11182	866.05676	864.68188	-599.95007	853.87653	843.27795	-543.14581	792.02893	830.13373	-646.08667	1396.33069	1278.08228	-695.86163	1194.17297	1377.79028	-691.61121	1070.45068	1381.99377	-660.34497	955.18323	1415.09033	-575.3847	841.07086	1400.77405	-619.34857	841.53833	1438.87378	-580.77704	763.90668	1439.18738	-599.2674	938.06567	1014.85858	-587.01215	941.25586	1231.90308	-780.81989	951.55646	1075.1792	-773.10657	957.08508	1220.48474	-588.70569	609.72089	949.1189	-586.16986	476.45563	956.659	-725.565	356.83273	950.98206	-875.96375	196.66556	999.79529	-924.64832	196.49229	1058.02087	-795.31659	77.47078	986.09082	-620.30554	608.35553	1283.81665	-598.59796	451.8717	1253.54382	-648.83997	281.25278	1257.91565	-670.02844	77.74669	1202.60229	-718.41821	40.07629	1152.42773	-528.65283	38.79494	1198.18652	-549.27441	1713.44666	1155.40442	-1973.07373	1023.33026	3101.76782	-2012.45935	1022.03387	3140.60522	NaN	NaN	NaN
70	0.69	-572.41675	1678.35938	1067.59033	-527.94556	1677.72986	1173.46655	-684.79437	1642.21741	1107.94067	-641.76959	1641.80078	1221.10583	-725.94867	1440.14807	1132.4574	-758.03131	1146.41272	1133.65247	-582.20581	1373.40881	1124.7688	-538.53735	1219.54773	1114.26965	-774.73535	1242.17798	1207.19958	-648.35876	1409.31604	967.43701	-675.55023	1225.60498	881.16449	-683.93408	1073.27551	879.64697	-635.93939	969.93347	852.54828	-544.61279	864.39911	866.00714	-599.66412	852.97504	844.56519	-543.84039	790.09912	831.72937	-639.375	1396.73083	1278.89148	-687.95593	1194.49426	1378.97046	-682.91724	1070.83997	1383.55786	-650.65851	955.93109	1416.84277	-564.71735	842.51843	1402.64905	-608.82556	842.73315	1440.83472	-569.32391	765.44739	1441.40393	-593.31793	938.90985	1016.14197	-581.05414	941.34381	1233.07544	-774.742	951.96619	1076.02966	-767.16278	957.26025	1221.35828	-578.5929	611.41089	949.66772	-574.03949	478.19019	957.39337	-711.26611	356.05902	952.11804	-858.94781	193.75238	1001.92877	-907.15033	191.47179	1060.62219	-774.49512	77.41589	986.04926	-616.76831	608.22614	1284.1593	-596.84961	451.52637	1253.98352	-648.20203	281.20874	1258.18604	-669.92377	77.73152	1202.57935	-718.26135	40.22351	1152.38672	-528.75928	38.70677	1198.13306	-542.10138	1713.54089	1155.87708	-1973.15588	1023.4303	3101.82935	-2012.53687	1022.09552	3140.68262	NaN	NaN	NaN
71	0.7	-565.55566	1678.48474	1068.16199	-520.88031	1677.82104	1173.83521	-677.89374	1642.56104	1108.01147	-634.78259	1642.34326	1221.98181	-719.61279	1440.53687	1133.44531	-751.8609	1146.79272	1134.76807	-575.94604	1373.70496	1125.28955	-532.33502	1219.8623	1114.9436	-768.50592	1242.6637	1208.42395	-642.547	1409.62256	968.19183	-670.82819	1225.85229	882.16138	-680.25189	1073.75427	881.29688	-633.85352	969.65796	853.97101	-544.21228	862.79645	867.3421	-599.4668	852.255	846.1734	-544.55103	788.22571	833.3139	-632.75391	1397.24548	1279.59509	-680.1875	1194.78394	1380.07568	-674.31274	1071.23071	1385.026	-641.01862	956.77209	1418.58411	-554.1474	843.94055	1404.39893	-598.10785	843.9115	1442.79175	-557.95563	767.0296	1443.2699	-587.22626	939.77753	1017.2041	-575.04956	941.45825	1234.25049	-768.74677	952.37994	1076.83826	-761.2301	957.44067	1222.16418	-568.59082	613.1261	950.1861	-562.17047	480.04413	958.2066	-696.96448	354.68909	953.37146	-840.79559	189.61409	1004.086	-889.0116	185.59477	1063.19543	-752.96027	77.13131	985.73474	-613.45819	608.06628	1284.63013	-595.22919	451.04617	1254.44836	-647.38306	281.12753	1258.44592	-669.91766	77.7655	1202.52441	-718.28931	40.33344	1152.34802	-528.66205	38.85441	1198.22791	-534.94928	1713.64856	1156.27332	-1973.11414	1023.43225	3101.97534	-2012.52991	1021.93005	3140.81885	NaN	NaN	NaN
72	0.71	-558.82495	1678.66052	1068.55469	-513.87616	1677.89722	1174.18848	-671.13916	1643.09937	1108.87097	-627.75598	1642.73486	1222.52271	-713.21387	1440.89709	1134.3562	-745.71393	1147.21155	1135.8114	-569.61652	1374.06238	1125.87939	-526.1344	1220.12744	1115.53381	-762.10059	1243.10083	1209.50977	-636.72504	1409.89832	968.89319	-666.12946	1226.08667	883.15643	-676.65002	1074.19836	882.7088	-631.79724	969.54419	855.34491	-543.72827	861.21259	868.6123	-599.18274	851.52502	847.41107	-545.43878	786.57214	834.75385	-626.15662	1397.78821	1280.31543	-672.52637	1195.05005	1380.99524	-665.77771	1071.62708	1386.3916	-631.43707	957.51758	1420.09668	-543.63025	845.51318	1406.07104	-587.43274	845.03564	1444.23608	-546.66925	768.76324	1445.25049	-581.34253	940.61139	1018.14166	-569.05432	941.50067	1235.14099	-762.72693	952.797	1077.65833	-755.13947	957.63922	1222.96082	-558.79156	614.95813	950.71344	-550.60956	481.95264	959.03809	-682.52948	352.90445	954.64575	-822.61713	185.53365	1006.08301	-870.04272	178.9381	1065.62952	-731.09039	76.25998	985.11407	-610.16602	607.97803	1285.10291	-593.48798	450.87753	1254.83459	-646.4906	281.11264	1258.78491	-669.875	77.81627	1202.58582	-718.29816	40.42011	1152.37378	-528.6828	38.86271	1198.25293	-527.94312	1713.61511	1156.5354	-1973.12817	1023.65021	3101.89038	-2012.49731	1022.0722	3140.79321	NaN	NaN	NaN
73	0.72	-552.10962	1678.78748	1068.90112	-506.91934	1678.02026	1174.37744	-664.62744	1643.75671	1110.50513	-620.62152	1643.06042	1222.69519	-706.8407	1441.23328	1135.23877	-739.52179	1147.60254	1136.88562	-563.33118	1374.34485	1126.41919	-519.94135	1220.37219	1116.05945	-755.69678	1243.5166	1210.62341	-630.81195	1410.14136	969.52295	-661.38599	1226.32312	884.08527	-672.92993	1074.62354	884.06586	-629.7691	969.41437	856.67883	-543.23535	859.7597	869.88434	-598.83386	850.91895	848.40259	-546.13275	784.98181	836.16144	-619.49487	1398.26294	1280.98486	-664.97345	1195.46338	1382.06787	-657.39417	1072.05481	1387.72693	-622.03094	958.28986	1421.51611	-533.19598	847.05536	1407.63428	-576.98969	846.28748	1445.84216	-535.40076	770.41718	1447.06018	-575.37646	941.4021	1019.03613	-563.0127	941.47906	1236.07825	-756.76917	953.23615	1078.44897	-749.16925	957.80084	1223.72302	-549.23718	616.71216	951.32202	-539.27271	483.8443	959.87994	-667.96185	350.93906	955.87427	-803.54565	180.34926	1007.90063	-850.43402	171.63635	1067.87292	-708.36481	74.92827	984.65985	-606.88397	607.86359	1285.37012	-591.8028	450.7211	1255.02026	-645.3653	281.11807	1259.03503	-669.84894	77.86522	1202.60278	-718.82629	40.27933	1152.34558	-528.64117	38.76833	1198.22107	-520.87158	1713.87085	1156.73828	-1973.13245	1023.37488	3101.86255	-2012.49426	1022.00226	3140.78589	NaN	NaN	NaN
74	0.73	-545.39111	1678.88342	1069.13159	-500.05374	1678.11365	1174.48413	-657.98773	1644.17419	1111.01563	-613.74371	1643.3894	1223.10913	-700.37439	1441.52136	1135.9679	-733.28271	1147.94507	1137.95508	-557.00348	1374.62622	1126.91003	-513.69525	1220.6344	1116.59851	-749.27002	1243.94434	1211.75085	-624.92847	1410.31616	970.06879	-656.66895	1226.54138	884.9834	-669.33246	1075.03003	885.30444	-627.57294	969.27374	857.86072	-542.73315	858.24146	871.06226	-598.49017	850.37665	849.94336	-546.93561	783.54529	837.48163	-612.83942	1398.55457	1281.58948	-657.5484	1195.7157	1382.85999	-649.09009	1072.46619	1388.9198	-612.69348	958.98859	1422.82495	-522.84558	848.68048	1409.13074	-566.58386	847.44427	1447.29773	-524.33533	772.15369	1448.73926	-569.39349	942.04767	1019.82971	-557.02661	941.48413	1236.81006	-750.79028	953.672	1079.22522	-743.03717	958.02234	1224.4325	-539.62189	618.51471	951.67072	-528.33276	485.65884	960.80865	-653.32373	348.67514	957.16095	-783.9118	174.62944	1009.64911	-830.11951	163.65302	1069.96948	-685.35004	73.28539	984.2406	-603.6275	607.78253	1285.5282	-589.98462	450.29288	1255.41748	-644.13983	281.07629	1259.2478	-669.74805	77.85667	1202.64331	-718.84338	40.68048	1152.47534	-528.56262	38.69834	1198.22546	-513.96539	1714.0354	1156.93237	-1973.14783	1023.41571	3101.97681	-2012.43018	1021.94409	3140.75537	NaN	NaN	NaN
75	0.74	-538.88153	1678.90588	1069.20593	-493.28076	1678.2356	1174.49646	-651.38049	1644.39441	1111.43726	-606.85358	1643.73364	1223.32495	-693.92639	1441.81165	1136.7865	-727.08813	1148.29175	1139.06323	-550.66516	1374.82886	1127.17175	-507.4151	1220.73145	1117.00647	-742.78522	1244.31604	1212.85071	-618.95685	1410.44678	970.66492	-651.86957	1226.64392	885.76245	-665.68652	1075.39026	886.54956	-625.34198	969.09552	859.06665	-542.06744	856.81384	872.19263	-598.04236	849.81	850.99146	-547.48022	781.90637	838.80054	-606.17572	1399.01587	1282.08972	-650.07361	1196.15271	1383.85645	-640.89008	1072.89099	1390.05408	-603.46576	959.82043	1424.09814	-512.55457	850.2478	1410.47485	-556.38348	848.67261	1448.55005	-513.362	773.91016	1450.33521	-563.18396	942.59204	1020.64478	-551.44336	940.94122	1237.33887	-744.8103	954.09705	1079.98779	-736.96057	958.26251	1225.15234	-530.33685	620.28864	952.18506	-517.23175	487.18591	961.56409	-638.95813	346.418	958.62225	-763.85431	168.38084	1011.12823	-809.12512	155.07648	1071.85864	-661.52246	71.53651	983.52686	-600.17145	607.57379	1285.81274	-588.18768	449.93802	1255.57532	-642.94672	281.0451	1259.35083	-669.6626	77.96236	1202.62781	-718.83423	40.8709	1152.47961	-528.49292	38.75836	1198.14417	-507.1763	1714.00208	1156.90698	-1973.10779	1023.43213	3101.91333	-2012.49048	1022.03851	3140.7251	NaN	NaN	NaN
76	0.75	-532.29004	1678.92151	1069.34302	-486.52908	1678.36975	1174.5376	-644.82806	1644.59485	1111.74536	-600.22858	1644.10022	1223.85327	-687.46118	1441.99304	1137.4696	-720.77972	1148.56311	1140.19019	-544.27722	1374.98389	1127.58337	-501.10852	1220.82275	1117.43298	-736.29315	1244.6792	1214.01074	-612.98438	1410.48486	971.14313	-647.08472	1226.72937	886.54541	-661.83484	1075.75488	887.82135	-623.13123	968.97815	860.12048	-541.83264	855.46332	873.21124	-597.67883	849.22803	851.63727	-548.02197	780.67926	839.86713	-599.41907	1399.44348	1282.60962	-642.72607	1196.47888	1384.69067	-632.76306	1073.26233	1391.09875	-594.341	960.43811	1425.15698	-502.38477	851.84259	1411.72327	-546.25604	849.85614	1449.7677	-502.46161	775.62024	1451.70032	-557.18463	943.11877	1021.04346	-545.21991	940.83148	1238.01978	-738.87524	954.53381	1080.70129	-730.81464	958.51038	1225.76477	-521.56396	621.85583	952.86029	-506.89618	488.78918	962.42096	-624.42529	344.0036	959.56519	-743.02368	161.57561	1012.5376	-787.42114	146.0916	1073.43848	-637.30438	69.45667	982.80414	-597.19415	607.4704	1286.2207	-586.45935	449.7717	1255.87732	-641.87201	281.01419	1259.52051	-669.59839	78.0602	1202.71057	-718.77448	41.03918	1152.44324	-528.3595	38.58839	1198.12866	-500.48828	1714.13147	1156.77429	-1973.16663	1023.29498	3101.96875	-2012.43921	1022.00635	3140.68579	NaN	NaN	NaN
